HIERARCHY
ROOT Hips
{
	OFFSET 0.000000 89.005402 0.000000
	CHANNELS 6 Xposition Yposition Zposition Xrotation Yrotation Zrotation
	JOINT Spine
	{
		OFFSET 0.116900 10.681000 0.373400
		CHANNELS 3 Xrotation Yrotation Zrotation
		JOINT Spine1
		{
			OFFSET 0.000000 13.840401 0.053500
			CHANNELS 3 Xrotation Yrotation Zrotation
			JOINT Spine2
			{
				OFFSET 0.000000 14.712700 -0.366200
				CHANNELS 3 Xrotation Yrotation Zrotation
				JOINT Neck
				{
					OFFSET 0.000000 35.415497 -3.314200
					CHANNELS 3 Xrotation Yrotation Zrotation
					JOINT Head
					{
						OFFSET 0.000000 16.899200 1.218300
						CHANNELS 3 Xrotation Yrotation Zrotation
						JOINT HeadTop_End
						{
							OFFSET 0.000000 22.206207 2.192500
							CHANNELS 3 Xrotation Yrotation Zrotation
							End Site
							{
								OFFSET 0.000000 22.314178 0.000000
							}
						}
					}
				}
				JOINT LeftShoulder
				{
					OFFSET 12.896400 26.716293 -4.548400
					CHANNELS 3 Xrotation Yrotation Zrotation
					JOINT LeftArm
					{
						OFFSET 19.027000 -4.857010 -1.718400
						CHANNELS 3 Xrotation Yrotation Zrotation
						JOINT LeftForeArm
						{
							OFFSET 24.179897 0.000000 0.000000
							CHANNELS 3 Xrotation Yrotation Zrotation
							JOINT LeftHand
							{
								OFFSET 27.156403 0.000000 0.000000
								CHANNELS 3 Xrotation Yrotation Zrotation
								JOINT LeftHandIndex1
								{
									OFFSET 16.441200 0.000000 0.000000
									CHANNELS 3 Xrotation Yrotation Zrotation
									JOINT LeftHandIndex2
									{
										OFFSET 4.821899 0.000000 0.000000
										CHANNELS 3 Xrotation Yrotation Zrotation
										JOINT LeftHandIndex3
										{
											OFFSET 6.386497 0.000000 0.000000
											CHANNELS 3 Xrotation Yrotation Zrotation
											JOINT LeftHandIndex4
											{
												OFFSET 5.188988 0.000000 0.000000
												CHANNELS 3 Xrotation Yrotation Zrotation
												End Site
												{
													OFFSET -0.178703 5.185913 0.000177
												}
											}
										}
									}
								}
								JOINT LeftHandThumb1
								{
									OFFSET 6.534897 -5.032593 5.900300
									CHANNELS 3 Xrotation Yrotation Zrotation
									JOINT LeftHandThumb2
									{
										OFFSET 3.818176 -2.204422 2.204423
										CHANNELS 3 Xrotation Yrotation Zrotation
										JOINT LeftHandThumb3
										{
											OFFSET 3.252098 -1.877594 1.877601
											CHANNELS 3 Xrotation Yrotation Zrotation
											JOINT LeftHandThumb4
											{
												OFFSET 5.251778 -3.032120 3.032117
												CHANNELS 3 Xrotation Yrotation Zrotation
												End Site
												{
													OFFSET 0.000023 6.780014 0.000000
												}
											}
										}
									}
								}
							}
						}
					}
				}
				JOINT RightShoulder
				{
					OFFSET -12.896300 26.716293 -4.548400
					CHANNELS 3 Xrotation Yrotation Zrotation
					JOINT RightArm
					{
						OFFSET -19.027000 -4.857010 -1.718400
						CHANNELS 3 Xrotation Yrotation Zrotation
						JOINT RightForeArm
						{
							OFFSET -24.179897 0.000000 0.000000
							CHANNELS 3 Xrotation Yrotation Zrotation
							JOINT RightHand
							{
								OFFSET -27.156403 0.000000 0.000000
								CHANNELS 3 Xrotation Yrotation Zrotation
								JOINT RightHandThumb1
								{
									OFFSET -6.591202 -4.852203 5.988100
									CHANNELS 3 Xrotation Yrotation Zrotation
									JOINT RightHandThumb2
									{
										OFFSET -3.818176 -2.204422 2.204423
										CHANNELS 3 Xrotation Yrotation Zrotation
										JOINT RightHandThumb3
										{
											OFFSET -3.252098 -1.877594 1.877601
											CHANNELS 3 Xrotation Yrotation Zrotation
											JOINT RightHandThumb4
											{
												OFFSET -5.251778 -3.032120 3.032117
												CHANNELS 3 Xrotation Yrotation Zrotation
												End Site
												{
													OFFSET -0.000023 6.780014 0.000000
												}
											}
										}
									}
								}
								JOINT RightHandIndex1
								{
									OFFSET -16.029404 0.000000 0.000000
									CHANNELS 3 Xrotation Yrotation Zrotation
									JOINT RightHandIndex2
									{
										OFFSET -5.213303 0.000000 0.000000
										CHANNELS 3 Xrotation Yrotation Zrotation
										JOINT RightHandIndex3
										{
											OFFSET -6.386528 0.000000 0.000000
											CHANNELS 3 Xrotation Yrotation Zrotation
											JOINT RightHandIndex4
											{
												OFFSET -5.189026 0.000000 0.000000
												CHANNELS 3 Xrotation Yrotation Zrotation
												End Site
												{
													OFFSET 0.236702 5.183624 0.001972
												}
											}
										}
									}
								}
							}
						}
					}
				}
			}
		}
	}
	JOINT LeftUpLeg
	{
		OFFSET 14.073000 -7.904099 -1.463000
		CHANNELS 3 Xrotation Yrotation Zrotation
		JOINT LeftLeg
		{
			OFFSET -0.109806 -34.073280 4.093200
			CHANNELS 3 Xrotation Yrotation Zrotation
			JOINT LeftFoot
			{
				OFFSET 0.109806 -29.899420 -6.319000
				CHANNELS 3 Xrotation Yrotation Zrotation
				JOINT LeftToeBase
				{
					OFFSET 1.551100 -14.988700 20.535801
					CHANNELS 3 Xrotation Yrotation Zrotation
					JOINT LeftToe_End
					{
						OFFSET 0.221200 0.570800 13.248301
						CHANNELS 3 Xrotation Yrotation Zrotation
						End Site
						{
							OFFSET 0.000000 13.262435 0.000000
						}
					}
				}
			}
		}
	}
	JOINT RightUpLeg
	{
		OFFSET -13.839300 -7.904099 -1.463000
		CHANNELS 3 Xrotation Yrotation Zrotation
		JOINT RightLeg
		{
			OFFSET 0.109694 -34.073219 4.093300
			CHANNELS 3 Xrotation Yrotation Zrotation
			JOINT RightFoot
			{
				OFFSET -0.109694 -29.899384 -6.319200
				CHANNELS 3 Xrotation Yrotation Zrotation
				JOINT RightToeBase
				{
					OFFSET -1.551100 -14.988700 20.535801
					CHANNELS 3 Xrotation Yrotation Zrotation
					JOINT RightToe_End
					{
						OFFSET -0.221200 0.570900 13.248299
						CHANNELS 3 Xrotation Yrotation Zrotation
						End Site
						{
							OFFSET 0.000000 13.262440 0.000000
						}
					}
				}
			}
		}
	}
}
MOTION
Frames: 4
Frame Time: 0.033333
-14.245792 86.411835 16.915707 -3.474364 17.279320 -0.736853 4.589008 -4.870473 7.962193 1.894920 -1.579191 -1.806356 1.854917 -1.614642 -1.783028 1.263711 -0.165958 2.791145 5.373309 2.285567 5.117565 0.000000 -0.000000 -0.000000 0.872063 -1.779798 -14.372009 -0.791188 -23.018683 -39.002269 -0.000021 -110.947400 -0.000020 32.575648 17.953224 -17.278504 -0.125595 2.179726 -13.184825 1.025057 3.312174 -34.384391 0.012432 0.381895 -3.729432 0.000001 -0.000001 -0.000002 -0.776823 1.383651 3.366016 10.400457 23.301561 17.759742 -13.665330 3.985767 8.672662 0.000002 0.000001 0.000003 -0.625532 13.986569 21.429230 -3.358871 13.753502 51.191195 -0.000034 111.525262 0.000037 41.090299 -9.446314 19.752350 -0.901554 -1.795456 0.888741 3.940168 -15.484993 -20.851946 -13.053850 -11.501174 -7.208547 0.000000 0.000000 -0.000001 0.277619 -3.794833 12.803291 0.656871 -2.386659 30.772751 0.087889 -0.901452 11.136870 -0.000001 0.000002 -0.000001 -10.727420 8.387657 15.471709 19.573242 2.791243 -0.446468 -5.037272 1.335099 -13.143221 0.169397 0.000006 -0.000003 0.000000 -0.000000 -0.000000 -2.009560 -15.097223 5.517047 15.340340 2.948529 -1.026311 -9.997334 -7.032283 -4.683503 -2.518095 -0.000001 0.000000 -0.000000 -0.000000 -0.000000 
-14.289618 86.403427 16.848219 -3.491277 17.451442 -0.721805 4.745501 -4.990680 7.828169 1.915204 -1.608791 -1.796197 1.876526 -1.642991 -1.772239 1.452936 -0.059250 2.812859 6.697470 3.569776 5.416177 -0.000000 0.000000 0.000001 0.870437 -1.778912 -14.383516 -1.531808 -22.103201 -39.657803 0.000058 -111.463544 0.000075 30.943530 16.319998 -21.547787 -0.198879 -0.620538 -4.912577 0.688477 2.757387 -28.033333 0.005189 0.246842 -2.409517 -0.000001 -0.000001 -0.000000 -0.815074 2.006319 4.064164 11.722502 24.757076 17.222121 -13.797745 3.568124 9.015982 0.000005 -0.000001 -0.000002 -0.620952 13.996605 21.405517 -3.810898 13.632145 51.259450 0.000040 111.706118 -0.000050 40.828685 -9.511069 18.894149 -1.113319 -3.075829 2.460793 2.625839 -12.937024 -21.440483 -12.660875 -12.351783 -6.583581 0.000001 -0.000000 0.000000 0.664038 -4.908463 18.006160 0.651950 -2.378379 30.654384 0.127004 -1.081304 13.396966 0.000002 -0.000001 0.000001 -10.882973 8.388541 15.462980 19.599641 2.599293 -0.408778 -4.938722 1.322960 -13.085611 0.297939 0.000020 -0.000004 -0.000000 0.000002 -0.000000 -2.063975 -15.071956 5.551530 15.376330 2.632299 -1.078789 -9.978301 -6.906892 -4.625411 -2.519869 -0.000000 -0.000001 -0.000000 0.000000 -0.000000 
-14.330546 86.401093 16.777185 -3.465665 17.527942 -0.731025 4.901495 -4.988771 7.687867 1.933691 -1.603885 -1.775947 1.895906 -1.637236 -1.752233 1.603105 -0.024668 2.835989 7.739728 4.078307 5.694421 0.000000 0.000000 0.000001 0.870312 -1.762196 -14.372265 -2.065305 -21.326299 -40.193170 -0.000009 -112.007787 -0.000010 26.834066 13.886552 -25.058555 0.029320 -1.756732 -0.697805 0.542890 2.464885 -24.838485 0.003853 0.212449 -2.073733 0.000001 -0.000001 -0.000003 -0.904366 2.395579 4.464443 13.108829 26.543304 16.526807 -13.908849 3.224808 9.392284 0.000001 -0.000001 -0.000001 -0.616468 14.007033 21.381463 -4.624692 13.408071 51.517740 -0.000026 111.253857 0.000036 41.101674 -9.849233 17.832686 -1.135146 -2.882452 2.412551 2.599627 -12.784429 -21.442609 -12.573508 -12.536987 -6.451182 0.000000 0.000001 -0.000000 0.619519 -4.776299 17.944886 0.613712 -2.312676 29.719792 0.127554 -1.083618 13.426216 0.000001 -0.000002 0.000001 -11.031707 8.376290 15.469438 19.610636 2.516374 -0.385273 -4.841198 1.313326 -13.074760 0.402843 -0.000018 -0.000001 0.000000 0.000002 -0.000000 -2.156511 -15.042161 5.580640 15.375511 2.367614 -1.119494 -9.918843 -6.782891 -4.574177 -2.524517 0.000001 -0.000001 0.000000 0.000000 -0.000000 
-14.367822 86.404388 16.711536 -3.386919 17.522157 -0.759629 5.030410 -4.880240 7.544481 1.947113 -1.569053 -1.745896 1.909826 -1.601953 -1.722403 1.701165 -0.042944 2.850572 8.618199 4.020206 5.914360 -0.000000 0.000000 0.000000 0.868688 -1.733985 -14.371223 -2.035871 -21.160961 -40.149525 0.000106 -112.612129 0.000114 23.262188 12.302351 -26.240030 0.063815 -1.694702 -0.212759 0.549656 2.479395 -24.995149 0.004010 0.216667 -2.114756 -0.000000 -0.000004 -0.000001 -1.005765 2.356884 4.510713 13.727138 27.414694 16.157229 -13.936866 3.151606 9.556983 -0.000001 0.000001 0.000001 -0.612007 14.017183 21.357771 -5.523051 13.150436 51.807777 0.000132 110.489402 -0.000132 42.441737 -10.476166 17.312959 -1.032331 -2.326428 1.636307 2.995503 -13.507296 -21.267676 -12.753445 -12.157687 -6.731847 0.000000 -0.000001 0.000001 0.383009 -4.138127 14.986361 0.482285 -2.065694 26.280401 0.089075 -0.907456 11.212015 -0.000000 -0.000001 0.000001 -11.172989 8.340083 15.478955 19.597367 2.540466 -0.379875 -4.753166 1.310990 -13.080672 0.513999 -0.000007 0.000002 -0.000000 -0.000002 -0.000000 -2.289129 -14.992888 5.610915 15.340632 2.132110 -1.153311 -9.833601 -6.661650 -4.532296 -2.551780 -0.000001 0.000001 -0.000000 -0.000000 -0.000000 
